<mxfile host="65bd71144e">
    <diagram id="HJ6goO9fNsCKAkDsjl09" name="Page-1">
        <mxGraphModel dx="1280" dy="593" grid="1" gridSize="10" guides="1" tooltips="1" connect="1" arrows="1" fold="1" page="1" pageScale="1" pageWidth="827" pageHeight="1169" math="0" shadow="0">
            <root>
                <mxCell id="0"/>
                <mxCell id="1" parent="0"/>
                <mxCell id="6" value="" style="edgeStyle=none;html=1;fontSize=15;" edge="1" parent="1" source="2" target="5">
                    <mxGeometry relative="1" as="geometry"/>
                </mxCell>
                <mxCell id="2" value="inicio" style="ellipse;whiteSpace=wrap;html=1;fontSize=15;fillColor=#a20025;fontColor=#ffffff;strokeColor=#6F0000;" vertex="1" parent="1">
                    <mxGeometry x="354" y="10" width="120" height="80" as="geometry"/>
                </mxCell>
                <mxCell id="8" value="" style="edgeStyle=none;html=1;fontSize=15;" edge="1" parent="1" source="5" target="7">
                    <mxGeometry relative="1" as="geometry"/>
                </mxCell>
                <mxCell id="5" value="Cheque" style="shape=parallelogram;perimeter=parallelogramPerimeter;whiteSpace=wrap;html=1;fixedSize=1;fontSize=15;fillColor=#e3c800;fontColor=#000000;strokeColor=#B09500;" vertex="1" parent="1">
                    <mxGeometry x="355" y="150" width="120" height="60" as="geometry"/>
                </mxCell>
                <mxCell id="10" value="" style="edgeStyle=none;html=1;fontSize=15;" edge="1" parent="1" source="7" target="9">
                    <mxGeometry relative="1" as="geometry"/>
                </mxCell>
                <mxCell id="7" value="B10k=0&lt;br&gt;B2k=0&lt;br&gt;M100=0&lt;br&gt;Total_B10k=0&lt;br&gt;Total_B2k=0&lt;br&gt;Total_M100=0" style="whiteSpace=wrap;html=1;fontSize=15;fillColor=#f0a30a;fontColor=#000000;strokeColor=#BD7000;" vertex="1" parent="1">
                    <mxGeometry x="300" y="260" width="230" height="130" as="geometry"/>
                </mxCell>
                <mxCell id="12" value="" style="edgeStyle=none;html=1;fontSize=15;" edge="1" parent="1" source="9" target="11">
                    <mxGeometry relative="1" as="geometry"/>
                </mxCell>
                <mxCell id="15" value="" style="edgeStyle=none;html=1;fontSize=15;" edge="1" parent="1" source="9" target="14">
                    <mxGeometry relative="1" as="geometry"/>
                </mxCell>
                <mxCell id="9" value="Cheque!=0" style="rhombus;whiteSpace=wrap;html=1;fontSize=15;fillColor=#647687;fontColor=#ffffff;strokeColor=#314354;" vertex="1" parent="1">
                    <mxGeometry x="374" y="440" width="86" height="90" as="geometry"/>
                </mxCell>
                <mxCell id="11" value="&lt;div&gt;&amp;nbsp; &amp;nbsp; B10k=cheque//10000&lt;/div&gt;&lt;div&gt;&amp;nbsp; &amp;nbsp; B2k=(cheque-(B10k*10000))//2000&lt;/div&gt;&lt;div&gt;&amp;nbsp;M100=((cheque-(B10k*10000))-(B2k*2000))//100&lt;/div&gt;&lt;div&gt;&amp;nbsp; &amp;nbsp; Total_B10k=Total_B10k+B10k&lt;/div&gt;&lt;div&gt;&amp;nbsp; &amp;nbsp; Total_B2k=Total_B2k+B2k&lt;/div&gt;&lt;div&gt;&amp;nbsp; &amp;nbsp; Total_M100=Total_M100+M100&lt;/div&gt;" style="whiteSpace=wrap;html=1;fontSize=15;fillColor=#f0a30a;fontColor=#000000;strokeColor=#BD7000;" vertex="1" parent="1">
                    <mxGeometry x="239" y="580" width="350" height="120" as="geometry"/>
                </mxCell>
                <mxCell id="20" value="" style="edgeStyle=none;html=1;fontSize=15;" edge="1" parent="1" target="19">
                    <mxGeometry relative="1" as="geometry">
                        <mxPoint x="790" y="540" as="sourcePoint"/>
                        <Array as="points">
                            <mxPoint x="790" y="840"/>
                            <mxPoint x="414" y="840"/>
                        </Array>
                    </mxGeometry>
                </mxCell>
                <mxCell id="14" value="&lt;div&gt;Total_B10k,&amp;nbsp;&lt;span&gt;Total_B2k,&amp;nbsp;&lt;/span&gt;&lt;span&gt;Total_M100&lt;/span&gt;&lt;/div&gt;" style="shape=document;whiteSpace=wrap;html=1;boundedLbl=1;fontSize=15;fillColor=#60a917;fontColor=#ffffff;strokeColor=#2D7600;" vertex="1" parent="1">
                    <mxGeometry x="640" y="410" width="250" height="160" as="geometry"/>
                </mxCell>
                <mxCell id="16" value="V" style="text;html=1;strokeColor=none;fillColor=none;align=center;verticalAlign=middle;whiteSpace=wrap;rounded=0;fontSize=15;" vertex="1" parent="1">
                    <mxGeometry x="414" y="540" width="60" height="30" as="geometry"/>
                </mxCell>
                <mxCell id="17" value="F" style="text;html=1;strokeColor=none;fillColor=none;align=center;verticalAlign=middle;whiteSpace=wrap;rounded=0;fontSize=15;" vertex="1" parent="1">
                    <mxGeometry x="500" y="450" width="60" height="30" as="geometry"/>
                </mxCell>
                <mxCell id="19" value="Fin" style="ellipse;whiteSpace=wrap;html=1;fontSize=15;fillColor=#1ba1e2;fontColor=#ffffff;strokeColor=#006EAF;" vertex="1" parent="1">
                    <mxGeometry x="354" y="900" width="120" height="80" as="geometry"/>
                </mxCell>
                <mxCell id="22" value="" style="edgeStyle=none;html=1;fontSize=15;exitX=0.489;exitY=1.009;exitDx=0;exitDy=0;exitPerimeter=0;endArrow=none;" edge="1" parent="1" source="11">
                    <mxGeometry relative="1" as="geometry">
                        <mxPoint x="420" y="431" as="targetPoint"/>
                        <mxPoint x="410.1500000000001" y="701.0799999999999" as="sourcePoint"/>
                        <Array as="points">
                            <mxPoint x="410" y="810"/>
                            <mxPoint x="200" y="810"/>
                            <mxPoint x="200" y="431"/>
                        </Array>
                    </mxGeometry>
                </mxCell>
                <mxCell id="21" value="Cheque" style="shape=parallelogram;perimeter=parallelogramPerimeter;whiteSpace=wrap;html=1;fixedSize=1;fontSize=15;fillColor=#e3c800;fontColor=#000000;strokeColor=#B09500;" vertex="1" parent="1">
                    <mxGeometry x="350" y="720" width="120" height="60" as="geometry"/>
                </mxCell>
            </root>
        </mxGraphModel>
    </diagram>
</mxfile>